<svg width="81" height="80" viewBox="0 0 81 80" fill="none" xmlns="http://www.w3.org/2000/svg">
<path d="M40.4996 -0.0849609C18.3971 -0.0849609 0.412109 17.895 0.412109 40C0.412109 62.105 18.3971 80.085 40.4996 80.085C62.6021 80.085 80.5871 62.105 80.5871 40C80.5871 17.895 62.6021 -0.0849609 40.4996 -0.0849609ZM40.4996 77.415C19.8696 77.415 3.08711 60.63 3.08711 40C3.08711 19.37 19.8696 2.58504 40.4996 2.58504C61.1296 2.58504 77.9121 19.37 77.9121 40C77.9121 60.63 61.1296 77.415 40.4996 77.415Z" fill="#B57F4F"/>
<path d="M41.7497 15.1327C42.1163 15.1327 42.468 14.987 42.7273 14.7277C42.9865 14.4685 43.1322 14.1168 43.1322 13.7502V8.75018C43.1322 8.38351 42.9865 8.03187 42.7273 7.7726C42.468 7.51333 42.1163 7.36768 41.7497 7.36768C41.383 7.36768 41.0314 7.51333 40.7721 7.7726C40.5128 8.03187 40.3672 8.38351 40.3672 8.75018V13.7502C40.3672 14.5152 40.9872 15.1327 41.7497 15.1327ZM14.2497 37.3677H9.24969C8.88303 37.3677 8.53138 37.5133 8.27211 37.7726C8.01284 38.0319 7.86719 38.3835 7.86719 38.7502C7.86719 39.1168 8.01284 39.4685 8.27211 39.7277C8.53138 39.987 8.88303 40.1327 9.24969 40.1327H14.2497C14.4312 40.1327 14.611 40.0969 14.7787 40.0274C14.9465 39.958 15.0989 39.8561 15.2273 39.7277C15.3556 39.5994 15.4575 39.447 15.527 39.2792C15.5964 39.1115 15.6322 38.9317 15.6322 38.7502C15.6322 38.5686 15.5964 38.3888 15.527 38.2211C15.4575 38.0534 15.3556 37.901 15.2273 37.7726C15.0989 37.6442 14.9465 37.5424 14.7787 37.4729C14.611 37.4034 14.4312 37.3677 14.2497 37.3677ZM65.3672 38.7502C65.3672 39.5152 65.9872 40.1327 66.7497 40.1327H71.7497C71.9312 40.1327 72.111 40.0969 72.2787 40.0274C72.4465 39.958 72.5989 39.8561 72.7273 39.7277C72.8556 39.5994 72.9575 39.447 73.027 39.2792C73.0964 39.1115 73.1322 38.9317 73.1322 38.7502C73.1322 38.5686 73.0964 38.3888 73.027 38.2211C72.9575 38.0534 72.8556 37.901 72.7273 37.7726C72.5989 37.6442 72.4465 37.5424 72.2787 37.4729C72.111 37.4034 71.9312 37.3677 71.7497 37.3677H66.7497C66.383 37.3677 66.0314 37.5133 65.7721 37.7726C65.5128 38.0319 65.3672 38.3835 65.3672 38.7502ZM21.9372 25.3202C22.2106 25.3208 22.4781 25.2403 22.7057 25.0887C22.9332 24.9371 23.1106 24.7213 23.2153 24.4687C23.3201 24.2162 23.3474 23.9382 23.2939 23.67C23.2403 23.4019 23.1084 23.1557 22.9147 22.9627L18.9772 19.0227C18.849 18.8945 18.6968 18.7928 18.5293 18.7234C18.3618 18.654 18.1822 18.6183 18.0009 18.6183C17.8196 18.6183 17.6401 18.654 17.4726 18.7234C17.3051 18.7928 17.1529 18.8945 17.0247 19.0227C16.8965 19.1509 16.7948 19.3031 16.7254 19.4706C16.656 19.6381 16.6203 19.8176 16.6203 19.9989C16.6203 20.1802 16.656 20.3598 16.7254 20.5273C16.7948 20.6948 16.8965 20.847 17.0247 20.9752L20.9622 24.9127C21.0894 25.0421 21.2411 25.1448 21.4086 25.2148C21.576 25.2848 21.7557 25.3206 21.9372 25.3202ZM60.2272 52.7727C59.9683 52.5138 59.6171 52.3683 59.2509 52.3683C58.8848 52.3683 58.5336 52.5138 58.2747 52.7727C58.0158 53.0316 57.8703 53.3828 57.8703 53.7489C57.8703 54.1151 58.0158 54.4663 58.2747 54.7252L62.0247 58.4752C62.1526 58.6044 62.3048 58.707 62.4726 58.7771C62.6404 58.8471 62.8204 58.8832 63.0022 58.8832C63.184 58.8832 63.364 58.8471 63.5318 58.7771C63.6996 58.707 63.8518 58.6044 63.9797 58.4752C64.108 58.347 64.2097 58.1948 64.2792 58.0273C64.3486 57.8598 64.3843 57.6802 64.3843 57.4989C64.3843 57.3176 64.3486 57.138 64.2792 56.9705C64.2097 56.803 64.108 56.6508 63.9797 56.5227L60.2272 52.7727ZM62.7272 19.7277C62.8554 19.5995 62.9571 19.4473 63.0265 19.2798C63.0959 19.1123 63.1316 18.9327 63.1316 18.7514C63.1316 18.5701 63.0959 18.3906 63.0265 18.2231C62.9571 18.0556 62.8554 17.9034 62.7272 17.7752C62.599 17.647 62.4468 17.5453 62.2793 17.4759C62.1118 17.4065 61.9322 17.3708 61.7509 17.3708C61.5696 17.3708 61.3901 17.4065 61.2226 17.4759C61.0551 17.5453 60.9029 17.647 60.7747 17.7752L56.8372 21.7127C56.709 21.841 56.6073 21.9934 56.538 22.1611C56.4687 22.3287 56.4331 22.5084 56.4332 22.6898C56.4333 22.8712 56.4691 23.0509 56.5387 23.2184C56.6082 23.386 56.7101 23.5382 56.8384 23.6664C56.9668 23.7946 57.1192 23.8963 57.2868 23.9656C57.4545 24.0349 57.6341 24.0706 57.8156 24.0704C57.997 24.0703 58.1766 24.0345 58.3442 23.9649C58.5117 23.8954 58.664 23.7935 58.7922 23.6652L62.7272 19.7277ZM22.0222 54.0227L18.2722 57.7727C18.144 57.901 18.0423 58.0534 17.973 58.2211C17.9037 58.3887 17.8681 58.5684 17.8682 58.7498C17.8683 58.9312 17.9041 59.1109 17.9737 59.2784C18.0432 59.446 18.1451 59.5982 18.2734 59.7264C18.4018 59.8546 18.5542 59.9563 18.7218 60.0256C18.8895 60.0949 19.0691 60.1305 19.2506 60.1304C19.432 60.1303 19.6116 60.0945 19.7792 60.0249C19.9468 59.9554 20.099 59.8535 20.2272 59.7252L23.9772 55.9752C24.1054 55.8468 24.2071 55.6944 24.2764 55.5268C24.3457 55.3591 24.3813 55.1795 24.3812 54.998C24.3811 54.8166 24.3452 54.637 24.2757 54.4694C24.2062 54.3019 24.1043 54.1496 23.9759 54.0214C23.8476 53.8932 23.6952 53.7916 23.5276 53.7222C23.3599 53.6529 23.1802 53.6173 22.9988 53.6174C22.8174 53.6175 22.6378 53.6534 22.4702 53.7229C22.3026 53.7924 22.1504 53.8943 22.0222 54.0227ZM49.2497 60.0002H31.7497C29.5272 59.9152 27.9122 61.5277 27.9122 63.7502V66.1427C27.9122 68.3877 29.5972 70.1502 31.7497 70.0002H49.2497C51.3997 70.1502 53.0872 68.3877 53.0872 66.1427V63.7502C53.0872 61.5277 51.4722 59.9152 49.2497 60.0002ZM50.4122 66.1427C50.4122 66.7852 50.0472 67.4777 49.2497 67.5627H31.7497C30.9497 67.4777 30.5872 66.7827 30.5872 67.5002V65.1077C30.5872 63.0102 31.0097 62.5852 31.7497 62.5002H49.2497C49.9897 62.5852 50.4122 63.0102 50.4122 63.7502V66.1427ZM40.4997 46.6677C42.2797 46.6677 43.9547 45.9752 45.2122 44.7152C46.2971 43.6283 46.974 42.2005 47.1289 40.6726C47.2837 39.1447 46.907 37.6101 46.0622 36.3277L52.6947 29.6952C52.9453 29.4445 53.0861 29.1046 53.0861 28.7502C53.0861 28.3957 52.9453 28.0558 52.6947 27.8052C52.4441 27.5545 52.1041 27.4137 51.7497 27.4137C51.3952 27.4137 51.0553 27.5545 50.8047 27.8052L44.1647 34.4452C41.6022 32.8077 37.9822 33.0877 35.7872 35.2852C34.8572 36.2184 34.2242 37.4061 33.9682 38.6985C33.7122 39.991 33.8445 41.3302 34.3485 42.5476C34.8525 43.7649 35.7056 44.8058 36.8002 45.539C37.8949 46.2722 39.1822 46.6649 40.4997 46.6677ZM38.1447 37.6452C38.7722 37.0152 39.6097 36.6677 40.4997 36.6677C41.3897 36.6677 42.2272 37.0152 42.8572 37.6452C44.1572 38.9452 44.1572 41.0577 42.8572 42.3577C41.5997 43.6177 39.4047 43.6177 38.1447 42.3577C37.5204 41.7324 37.1698 40.885 37.1698 40.0014C37.1698 39.1179 37.5204 38.2704 38.1447 37.6452Z" fill="#B57F4F"/>
</svg>
